<?xml version="1.0" encoding="UTF-8"?>
<svg width="1024px" height="370px" viewBox="0 0 1024 370" version="1.1" xmlns="http://www.w3.org/2000/svg" xmlns:xlink="http://www.w3.org/1999/xlink">
    <!-- Generator: Sketch 50 (54983) - http://www.bohemiancoding.com/sketch -->
    <title>Group 14</title>
    <desc>Created with Sketch.</desc>
    <defs></defs>
    <g id="Page-1" stroke="none" stroke-width="1" fill="none" fill-rule="evenodd">
        <g id="Initial-view">
            <g id="Group-14">
                <g id="Group-13">
                    <g id="Group-12">
                        <rect id="Rectangle-10" fill="#FFFFFF" x="0" y="0" width="1024" height="306"></rect>
                        <rect id="Rectangle-3" fill="#E32929" x="335" y="0" width="689" height="251"></rect>
                        <g id="Group-11">
                            <rect id="Rectangle-3-Copy" fill="#FFB80E" x="0" y="0" width="327" height="251"></rect>
                            <g id="noun_98750_cc" transform="translate(57.000000, 34.000000)" fill="#E32929" fill-rule="nonzero">
                                <g id="Group">
                                    <path d="M72.0265909,151.227371 L72.0265909,145.323775 C72.0265909,145.323775 68.6054455,142.322427 68.7324682,136.812404 C68.8736045,130.634157 72.0265909,128.298202 72.0265909,128.298202 L72.0378818,107.158517 C72.0378818,97.5598652 84.2038364,89.7110562 100.9539,86.1349213 L102.6306,75.1233708 C102.766091,74.2711011 102.359618,73.4216629 101.614418,72.9884494 C100.872041,72.555236 99.9348955,72.6203596 99.2602636,73.1583371 C99.1473545,73.2489438 99.0259773,73.3338876 98.9102455,73.4244944 L99.7090773,63.3246742 L91.5655091,62.6762697 L91.8477818,59.1227865 L81.3924,58.2903371 L81.1327091,61.5833258 L76.2155182,61.172764 L77.1667773,49.1333933 L69.1332955,48.4934831 L69.5764636,40.330382 L59.0956773,40.2086292 L58.6694455,48.0206292 L51.8243318,47.9894831 L51.7622318,60.5979775 L45.52965,60.6347865 L45.1203545,49.9545169 L36.5674909,50.2829663 L36.2513455,45.8177528 L30.4308818,46.3359101 L26.2137273,46.7124944 L26.6202,52.4348764 L20.4468955,53.1031011 L20.7489273,58.3016629 L10.8355091,59.088809 L11.4480409,66.827191 L2.97139091,67.5010787 L3.40044545,72.8978427 C2.79355909,72.6316854 2.08787727,72.6458427 1.50075,72.9912809 C0.75555,73.4244944 0.3519,74.2739326 0.481745455,75.1262022 L14.2905273,165.684809 C14.4429545,166.715461 15.3236455,167.474292 16.3595864,167.474292 L85.6180227,167.474292 C77.8978636,166.109528 72.0265909,159.364989 72.0265909,151.227371 Z M91.4017909,64.774382 L97.4593636,65.2585618 L96.6774682,75.1035506 C94.6309909,76.5730787 92.4828955,77.9180225 90.2614091,79.1638652 L91.4017909,64.774382 Z M83.22435,61.7560449 L83.3203227,60.5526742 L89.5952455,61.0538427 L89.4766909,62.5092135 L89.2593409,62.4950562 L87.8338636,80.4663371 C85.8269045,81.4884944 83.7663136,82.4228764 81.6492682,83.2723146 L83.28645,61.7617079 L83.22435,61.7560449 Z M5.63604545,74.5032809 L5.23239545,69.4321348 L11.5044955,68.9309663 L12.2892136,78.8439101 C9.98022273,77.5187865 7.75591364,76.0719101 5.63604545,74.5032809 Z M14.6123182,80.1237303 L13.0965136,61.0198652 L19.3686136,60.5186966 L21.1666909,83.1477303 C18.9198,82.2388315 16.7321864,81.2308315 14.6123182,80.1237303 Z M24.0741,84.252 L22.3917545,55.3654382 L26.7980318,54.8840899 L28.9884682,85.8461124 C27.3230591,85.370427 25.6887,84.8324494 24.0741,84.252 Z M31.4385955,86.4916854 L29.4372818,52.1319101 L28.6271591,52.2168539 L28.3872273,48.7907865 L34.4052818,48.252809 L34.7496545,53.108764 L36.0650455,87.4996854 C34.5069,87.202382 32.9628682,86.876764 31.4385955,86.4916854 Z M39.2406136,88.032 L36.9400909,55.5353258 L36.8215364,52.3782472 L43.10775,52.137573 L44.505,88.646427 C42.73515,88.499191 40.9794136,88.2896629 39.2406136,88.032 Z M46.6107545,88.7823371 L46.3538864,82.1000899 L46.2776727,62.7300674 L51.3614045,62.6989213 L51.4686682,88.9408989 C49.8371318,88.9380674 48.2168864,88.8814382 46.6107545,88.7823371 Z M80.9689909,63.6814382 L79.3459227,84.1500674 C77.6776909,84.756 75.9868773,85.3194607 74.2621909,85.8121348 L76.0518,63.2737079 L80.9689909,63.6814382 Z M60.0158864,88.5048539 C57.9355364,88.7172135 55.83825,88.8474607 53.7212045,88.9040899 L53.91315,50.1045843 L60.2050091,50.1328989 L60.0158864,88.5048539 Z M62.1131727,88.2783371 L62.3135864,48.0432809 L60.7723773,48.037618 L61.1421545,41.2166292 L67.4340136,41.2902472 L67.0501227,48.3320899 L66.7198636,48.3066067 L63.5640545,88.0773034 C63.0841909,88.1452584 62.5986818,88.2132135 62.1131727,88.2783371 Z M68.6421409,50.5661124 L74.9142409,51.0672809 L74.1267,60.9972135 L73.2516545,60.9235955 L71.2983273,86.5879551 C69.4550864,87.0409888 67.5836182,87.417573 65.6923909,87.7403596 L68.6421409,50.5661124 Z" id="Shape"></path>
                                    <g transform="translate(70.568182, 85.887640)">
                                        <g>
                                            <path d="M96.1834909,45.2080449 L6.72561818,45.2080449 C3.19438636,45.2080449 0.334963636,48.0763146 0.334963636,51.6184719 C0.334963636,55.1521348 3.19438636,58.0288989 6.72561818,58.0288989 L96.1834909,58.0288989 C99.7147227,58.0288989 102.574145,55.1521348 102.574145,51.6184719 C102.574145,48.0763146 99.7147227,45.2080449 96.1834909,45.2080449 Z" id="Shape"></path>
                                            <rect id="Rectangle-path" x="3.53029091" y="36.9458427" width="95.8485273" height="6.41325843"></rect>
                                            <g transform="translate(2.822727, 59.460674)" id="Shape">
                                                <polygon points="77.1554864 0.411505618 73.9601591 3.61388764 96.5560909 3.61388764 96.5560909 0.411505618"></polygon>
                                                <polygon points="34.5266591 3.61388764 57.8931955 3.61388764 54.7063364 0.411505618 37.7191636 0.411505618"></polygon>
                                                <polygon points="8.42207727 0.411505618 0.707563636 0.411505618 0.707563636 3.61388764 11.6145818 3.61388764"></polygon>
                                            </g>
                                            <path d="M51.4658455,0.403011236 C25.90605,0.403011236 3.54158182,10.0158202 3.54158182,22.8395056 L99.3929318,22.8395056 C99.3929318,10.0129888 77.0256409,0.403011236 51.4658455,0.403011236 Z M16.4358,16.4262472 C15.5522864,16.4262472 14.8381364,15.7070562 14.8381364,14.8264719 C14.8381364,13.9430562 15.5522864,13.2266966 16.4358,13.2266966 C17.3164909,13.2266966 18.0334636,13.9430562 18.0334636,14.8264719 C18.0334636,15.7070562 17.3164909,16.4262472 16.4358,16.4262472 Z M27.5065364,10.0129888 C26.6230227,10.0129888 25.9088727,9.29946067 25.9088727,8.41321348 C25.9088727,7.53262921 26.6202,6.8134382 27.5065364,6.8134382 C28.3872273,6.8134382 29.1013773,7.53546067 29.1013773,8.41321348 C29.1013773,9.29946067 28.3872273,10.0129888 27.5065364,10.0129888 Z M36.6578182,15.0756404 C35.7771273,15.0756404 35.0601545,14.3564494 35.0601545,13.4730337 C35.0601545,12.589618 35.7771273,11.8760899 36.6578182,11.8760899 C37.5385091,11.8760899 38.2554818,12.589618 38.2554818,13.4730337 C38.2554818,14.3564494 37.5413318,15.0756404 36.6578182,15.0756404 Z M45.3264136,7.3032809 C44.4400773,7.3032809 43.72875,6.58692135 43.72875,5.70350562 C43.72875,4.81725843 44.4400773,4.10089888 45.3264136,4.10089888 C46.2071045,4.10089888 46.9184318,4.81725843 46.9184318,5.70350562 C46.9184318,6.58692135 46.2042818,7.3032809 45.3264136,7.3032809 Z M53.5631318,15.7523596 C52.6767955,15.7523596 51.9654682,15.036 51.9654682,14.1554157 C51.9654682,13.2691685 52.6767955,12.5499775 53.5631318,12.5499775 C54.4438227,12.5499775 55.1579727,13.2691685 55.1579727,14.1554157 C55.1579727,15.0388315 54.4438227,15.7523596 53.5631318,15.7523596 Z M59.4541636,7.3032809 C58.5734727,7.3032809 57.8536773,6.58692135 57.8536773,5.70350562 C57.8536773,4.81725843 58.5762955,4.10089888 59.4541636,4.10089888 C60.3348545,4.10089888 61.0461818,4.81725843 61.0461818,5.70350562 C61.0490045,6.58692135 60.3376773,7.3032809 59.4541636,7.3032809 Z M68.4360818,16.4319101 C67.5553909,16.4319101 66.8440636,15.718382 66.8440636,14.8321348 C66.8440636,13.9487191 67.5553909,13.2295281 68.4360818,13.2295281 C69.3195955,13.2295281 70.0337455,13.9487191 70.0337455,14.8321348 C70.0365682,15.718382 69.3224182,16.4319101 68.4360818,16.4319101 Z M74.9396455,9.83177528 C74.0561318,9.83177528 73.3419818,9.11541573 73.3419818,8.22916854 C73.3419818,7.34292135 74.0561318,6.62939326 74.9396455,6.62939326 C75.8203364,6.62939326 76.5373091,7.34292135 76.5373091,8.22916854 C76.5373091,9.11541573 75.8203364,9.83177528 74.9396455,9.83177528 Z M86.0160273,17.1114607 C85.1353364,17.1114607 84.4183636,16.3922697 84.4183636,15.5088539 C84.4183636,14.6254382 85.1381591,13.9090787 86.0160273,13.9090787 C86.8967182,13.9090787 87.6108682,14.6254382 87.6108682,15.5088539 C87.6108682,16.3922697 86.8967182,17.1114607 86.0160273,17.1114607 Z" id="Shape"></path>
                                            <path d="M74.2650136,65.6030562 L71.0132318,68.8648989 C69.7684091,70.1164045 67.7445136,70.1164045 66.4940455,68.8648989 L63.2394409,65.6030562 L34.8315136,65.6030562 L28.1557636,72.3022921 C26.9052955,73.5537978 24.8842227,73.5537978 23.6365773,72.3022921 L16.9551818,65.6030562 L3.53029091,65.6030562 C3.53029091,74.4542022 10.6802591,81.6234607 19.5041045,81.6234607 L83.4078273,81.6234607 C92.22885,81.6234607 99.3788182,74.4542022 99.3788182,65.6030562 L74.2650136,65.6030562 Z" id="Shape"></path>
                                        </g>
                                        <path d="M100.214345,34.8590562 C97.94205,34.907191 95.7854864,34.3550562 93.6515045,33.6500225 C89.9480864,32.4268315 86.2220864,32.4126742 82.5271364,33.647191 C80.0459591,34.476809 77.5252636,35.1082247 74.9114182,34.7995955 C73.0568864,34.5759101 71.1967091,34.1596854 69.4014545,33.6217079 C65.6726318,32.5032809 61.9720364,32.4126742 58.2686182,33.6500225 C55.8184909,34.4683146 53.3203773,35.0884045 50.7347591,34.802427 C49.0100727,34.6155506 47.2628045,34.298427 45.6115091,33.7661124 C41.5637182,32.4523146 37.5639136,32.3900225 33.5499955,33.7915955 C29.4796227,35.2101573 25.4205409,35.2158202 21.3473455,33.794427 C17.33625,32.3928539 13.3308,32.4693034 9.28300909,33.7547865 C7.5555,34.3012584 5.71225909,34.4909663 3.91982727,34.8307416 C3.72223636,34.870382 3.50488636,34.8165843 3.25930909,34.802427 C3.25930909,32.4636404 3.25930909,30.1701573 3.25930909,27.7917303 C3.84643636,27.740764 4.46743636,27.7605843 5.05456364,27.6275056 C7.20265909,27.1348315 9.33664091,26.5770337 11.4790909,26.0673708 C14.6320773,25.3170337 17.7483682,25.4897528 20.8082045,26.5147416 C23.2329273,27.3273708 25.7028136,27.9559551 28.2630273,27.6926292 C30.0469909,27.5057528 31.8507136,27.1942921 33.5528182,26.6449888 C37.5723818,25.3368539 41.5411364,25.2688989 45.5268273,26.6591461 C49.6536545,28.103191 53.7691909,28.0946966 57.8960182,26.6478202 C61.8280773,25.2688989 65.7770727,25.257573 69.7119545,26.6336629 C73.8895909,28.103191 78.0474682,28.0918652 82.2335727,26.6251685 C86.1402273,25.257573 90.0581727,25.2858876 93.9704727,26.6251685 C96.0000136,27.3188764 98.0606045,27.8087191 100.225636,27.7067865 C100.214345,30.0965393 100.214345,32.4777978 100.214345,34.8590562 Z" id="Shape"></path>
                                    </g>
                                    <path d="M204.5988,29.5878202 L179.341036,29.5878202 L192.235255,7.83370787 L201.922855,14.8160899 L205.510541,9.5807191 L193.127236,0.650292135 C192.407441,0.129303371 191.504168,-0.0604044944 190.634768,0.120808989 C189.762545,0.299191011 189.014523,0.84 188.562886,1.60732584 L171.973718,29.5849888 L118.593123,29.5849888 C117.718077,29.5849888 117.00675,30.2956854 117.00675,31.1734382 L117.00675,40.1689888 C117.00675,41.0467416 117.718077,41.7574382 118.593123,41.7574382 L121.096882,41.7574382 L124.475686,83.065618 C132.853541,83.7961348 139.763577,85.0646292 145.471132,86.7380225 C161.001777,90.5604944 172.035818,98.1261573 172.035818,107.291596 L172.049932,128.547371 C172.049932,128.547371 175.217032,130.89182 175.363814,137.101213 C175.488014,142.645213 172.049932,145.655056 172.049932,145.655056 L172.049932,151.592629 C172.049932,158.014382 168.414259,163.558382 163.093418,166.313393 C162.410318,166.845708 161.631245,167.185483 160.761845,167.307236 C160.705391,167.324225 160.648936,167.344045 160.586836,167.363865 L191.106164,167.477124 C191.933223,167.477124 192.621968,166.837213 192.686891,166.01609 L202.603132,41.7602697 L204.601623,41.7602697 C205.476668,41.7602697 206.185173,41.0524045 206.185173,40.1718202 L206.185173,31.1762697 C206.18235,30.2985169 205.473845,29.5878202 204.5988,29.5878202 Z M201.434523,37.4111461 L121.7574,37.4111461 L121.7574,33.9369438 L201.437345,33.9369438 L201.437345,37.4111461 L201.434523,37.4111461 Z" id="Shape"></path>
                                </g>
                            </g>
                        </g>
                    </g>
                    <rect id="Rectangle-4-Copy-9" fill="#2B2B2B" x="0" y="265" width="1076" height="63"></rect>
                </g>
                <rect id="Rectangle-12" fill="#FFFFFF" x="0" y="328" width="1024" height="42"></rect>
            </g>
        </g>
    </g>
</svg>